<svg xmlns="http://www.w3.org/2000/svg" viewBox="0 0 512 512" fill="#fff"  xmlns:v="https://vecta.io/nano"><path d="M80.683 431.315v.001h.001z"/><path d="M462.547 221.286c-37.549-32.548-72.909-46.297-99.222-72.61s-40.064-61.674-72.611-99.222c-54.125-62.442-149.318-66.317-208.266-8.406l-2.351 2.336c-107.027 107.663-106.759 280.585.587 387.932s280.269 107.615 387.932.587l2.336-2.351c57.911-58.948 54.037-154.141-8.405-208.266zm-349.242 36.965c-21.492-2.422-36.951-21.807-34.529-43.299s21.807-36.951 43.298-34.529 36.951 21.807 34.529 43.299-21.806 36.951-43.298 34.529zm77.43 118.393c-15.293 15.293-40.087 15.293-55.381 0s-15.293-40.087 0-55.381 40.087-15.293 55.381 0 15.293 40.088 0 55.381zm20.85-240.424c-18.313 11.507-42.486 5.989-53.993-12.324s-5.989-42.486 12.324-53.993 42.486-5.989 53.993 12.324 5.989 42.486-12.324 53.993zm85.461 297.002c-21.492 2.422-40.877-13.038-43.299-34.529s13.038-40.877 34.529-43.299 40.877 13.038 43.298 34.529-13.036 40.879-34.528 43.299zm145.049-91.139c-11.507 18.313-35.68 23.83-53.993 12.324s-23.83-35.68-12.324-53.993 35.68-23.83 53.993-12.324 23.831 35.68 12.324 53.993z"/></svg>